<svg xmlns="http://www.w3.org/2000/svg" viewBox="0 0 256 256" width="256" height="256">
  <!-- 背景圆形 -->
  <circle cx="128" cy="128" r="120" fill="#2196F3"/>
  
  <!-- CSV文件图标 -->
  <rect x="70" y="60" width="116" height="136" rx="8" fill="white"/>
  
  <!-- 文件折角 -->
  <path d="M 150 60 L 150 90 L 186 90" fill="#E3F2FD"/>
  <path d="M 150 60 L 150 90 L 186 90 L 150 60" fill="#BBDEFB"/>
  
  <!-- CSV文字 -->
  <text x="128" y="115" font-family="Arial, sans-serif" font-size="24" font-weight="bold" fill="#1976D2" text-anchor="middle">CSV</text>
  
  <!-- 数据表格线条 -->
  <rect x="85" y="130" width="86" height="8" rx="2" fill="#E0E0E0"/>
  <rect x="85" y="145" width="86" height="8" rx="2" fill="#E0E0E0"/>
  <rect x="85" y="160" width="86" height="8" rx="2" fill="#E0E0E0"/>
  <rect x="85" y="175" width="60" height="8" rx="2" fill="#E0E0E0"/>
  
  <!-- 图表图标 -->
  <rect x="165" y="130" width="8" height="50" rx="2" fill="#4CAF50"/>
  <rect x="178" y="145" width="8" height="35" rx="2" fill="#FF9800"/>
  <rect x="191" y="155" width="8" height="25" rx="2" fill="#F44336"/>
</svg>